<?xml version="1.0" encoding="UTF-8" standalone="no"?>
<!-- Created with Inkscape (http://www.inkscape.org/) -->

<svg
   width="81.262001mm"
   height="23.431mm"
   viewBox="0 0 81.262001 23.431"
   version="1.1"
   id="svg1542"
   inkscape:version="1.1 (c68e22c387, 2021-05-23)"
   sodipodi:docname="logo-light-background.svg"
   xmlns:inkscape="http://www.inkscape.org/namespaces/inkscape"
   xmlns:sodipodi="http://sodipodi.sourceforge.net/DTD/sodipodi-0.dtd"
   xmlns="http://www.w3.org/2000/svg"
   xmlns:svg="http://www.w3.org/2000/svg">
  <sodipodi:namedview
     id="namedview1544"
     pagecolor="#ffffff"
     bordercolor="#666666"
     borderopacity="1.0"
     inkscape:pageshadow="2"
     inkscape:pageopacity="0.0"
     inkscape:pagecheckerboard="0"
     inkscape:document-units="mm"
     showgrid="false"
     inkscape:snap-page="true"
     inkscape:snap-text-baseline="true"
     inkscape:snap-center="true"
     inkscape:snap-object-midpoints="true"
     inkscape:snap-midpoints="true"
     inkscape:snap-smooth-nodes="true"
     inkscape:snap-intersection-paths="true"
     inkscape:object-paths="true"
     inkscape:snap-bbox="true"
     inkscape:bbox-paths="true"
     inkscape:bbox-nodes="true"
     inkscape:snap-bbox-edge-midpoints="true"
     inkscape:snap-bbox-midpoints="true"
     width="81.262mm"
     inkscape:zoom="4.1373683"
     inkscape:cx="191.42603"
     inkscape:cy="14.139423"
     inkscape:window-width="2560"
     inkscape:window-height="1412"
     inkscape:window-x="1080"
     inkscape:window-y="0"
     inkscape:window-maximized="1"
     inkscape:current-layer="text952" />
  <defs
     id="defs1539" />
  <g
     inkscape:label="Layer 1"
     inkscape:groupmode="layer"
     id="layer1">
    <g
       id="g1670"
       transform="translate(-55.595386,-91.384622)">
      <g
         id="g1137"
         transform="matrix(1,0,0.30720871,1,9.539378,67.723412)">
        <g
           aria-label="Schaefer"
           id="text952"
           style="font-style:italic;font-size:15.1694px;line-height:1.25;font-family:sans-serif;-inkscape-font-specification:'sans-serif Italic';stroke-width:0.264583">
          <path
             d="m 45.566057,33.142085 q -0.364066,-0.48542 -0.940503,-1.350076 -3.989552,-0.394405 -3.989552,-1.668634 0,-0.288219 0.288218,-0.470252 0.303388,-0.182032 0.910164,-0.182032 1.51694,0 3.018711,1.926513 1.51694,0.151694 3.443454,0.151694 h 0.166863 q 1.941683,-1.168043 3.610317,-2.351257 0.682623,-1.24389 1.183214,-2.047869 0.50059,-0.819147 1.213552,-1.698972 1.410754,-1.78999 2.973202,-1.78999 0.409574,0 0.409574,0.364066 0,0.879825 -1.456263,2.305749 -1.456262,1.425923 -3.868197,3.064219 -0.728131,1.395584 -1.092196,2.032699 2.123716,-0.166863 3.064218,-0.515759 h 0.04551 q 0.06068,0 0.06068,0.09102 0,0.07585 -0.106186,0.227541 -1.137705,0.348896 -3.27659,0.546098 -0.819148,1.410755 -1.592787,2.199563 -0.75847,0.77364 -1.53211,0.77364 -1.24389,0 -2.351257,-1.380416 -2.169224,1.092197 -3.837858,1.668634 -0.227541,0.07585 -0.530929,0.07585 -0.288218,0 -0.288218,-0.227541 0,-0.121355 0.121355,-0.227541 0.121355,-0.09102 0.318557,-0.09102 1.213552,0 4.035061,-1.425924 z m 2.897355,-1.213552 q -1.152874,0.652285 -2.27541,1.228722 1.01635,1.25906 1.850667,1.25906 0.621945,0 1.228721,-0.667454 0.621946,-0.667453 1.365246,-1.926513 -0.925333,0.07585 -2.169224,0.106185 z m 8.555542,-7.903257 q -1.046689,0 -2.108547,1.395585 -0.879825,1.183213 -1.926514,3.124896 1.911345,-1.410754 3.064219,-2.563628 1.152875,-1.168044 1.152875,-1.805159 0,-0.151694 -0.182033,-0.151694 z m -15.654821,6.037421 q 0,0.864656 2.927694,1.25906 -1.183213,-1.577617 -2.381596,-1.577617 -0.546098,0 -0.546098,0.318557 z m 4.641836,2.867017 q 0.940503,-0.50059 1.805159,-1.001181 h -0.06068 q -1.319738,0 -2.548459,-0.09102 0.576437,0.803978 0.803978,1.092197 z m 5.658187,-2.958033 q -0.819148,0.546098 -2.54846,1.577617 1.168044,-0.03034 1.714143,-0.07585 0.288218,-0.50059 0.834317,-1.50177 z"
             style="font-style:normal;font-variant:normal;font-weight:normal;font-stretch:normal;font-size:15.1694px;font-family:'Mrs Saint Delafield';-inkscape-font-specification:'Mrs Saint Delafield';fill:#422a4a;fill-opacity:1;stroke-width:0.264583"
             id="path33" />
          <path
             d="m 58.004941,32.125736 q 0.121355,-0.07585 0.197202,-0.07585 0.09102,0 0.09102,0.106185 v 0.03034 q -1.198383,1.061858 -2.472612,1.865836 -1.27423,0.803979 -2.123716,0.803979 -0.667454,0 -0.667454,-0.788809 0,-0.803978 0.955672,-1.744481 0.970842,-0.940503 2.093377,-0.940503 0.333727,0.03034 0.409574,0.106186 0.09102,0.07585 0.09102,0.212371 0,0.136525 -0.288219,0.500591 -0.273049,0.348896 -0.50059,0.348896 -0.25788,-0.04551 -0.25788,-0.182033 0,-0.06068 0.136525,-0.197202 0.257879,-0.227541 0.257879,-0.333727 0,-0.106186 -0.166863,-0.106186 -0.530929,0.01517 -1.334907,0.879825 -0.803978,0.849487 -0.803978,1.410755 0,0.424743 0.546098,0.424743 0.561268,0 1.198383,-0.394405 1.122535,-0.682623 2.26024,-1.623125 z"
             style="font-style:normal;font-variant:normal;font-weight:normal;font-stretch:normal;font-size:15.1694px;font-family:'Mrs Saint Delafield';-inkscape-font-specification:'Mrs Saint Delafield';fill:#422a4a;fill-opacity:1;stroke-width:0.264583"
             id="path35" />
          <path
             d="m 62.950158,32.110566 q 0.106186,-0.07585 0.197203,-0.07585 0.09102,0 0.09102,0.09102 v 0.04551 q -1.198383,1.00118 -2.351257,1.789989 -1.152874,0.879825 -1.607956,0.879825 -0.439913,0 -0.439913,-0.364065 0,-0.394405 0.576437,-1.334908 0.576437,-0.940502 0.576437,-1.00118 0,-0.07585 -0.06068,-0.07585 -0.197202,0 -1.213552,0.879825 -1.001181,0.864656 -1.759651,1.607957 -0.288218,0.257879 -0.409574,0.257879 -0.106185,0 -0.106185,-0.166863 0,-0.166863 0.197202,-0.424743 l 5.294121,-8.070121 q 0.166863,-0.25788 0.439912,-0.25788 0.288219,0 0.288219,0.182033 0,0.106186 -0.09102,0.227541 -0.07585,0.121355 -1.016349,1.456262 -0.940503,1.319738 -1.092197,1.562449 -0.136525,0.24271 -1.319738,2.00236 -1.168044,1.759651 -1.243891,1.865837 -0.06068,0.09102 -0.06068,0.151694 0,0.06068 0.04551,0.06068 0.06068,0 0.07585,-0.01517 0.485421,-0.485421 1.319738,-1.122536 0.849486,-0.652284 1.168043,-0.652284 0.121356,0 0.212372,0.09102 0.09102,0.07585 0.09102,0.27305 0,0.182032 -0.591606,1.031519 -0.591607,0.834317 -0.591607,1.092197 0,0.24271 0.151694,0.24271 0.166864,0 0.803978,-0.424743 1.137705,-0.75847 2.093378,-1.53211 z"
             style="font-style:normal;font-variant:normal;font-weight:normal;font-stretch:normal;font-size:15.1694px;font-family:'Mrs Saint Delafield';-inkscape-font-specification:'Mrs Saint Delafield';fill:#422a4a;fill-opacity:1;stroke-width:0.264583"
             id="path37" />
          <path
             d="m 64.497436,32.823528 q -0.09102,0 -0.09102,-0.06068 0,-0.07585 0.106186,-0.166863 0.50059,-0.409574 0.50059,-0.743301 0,-0.212371 -0.379235,-0.24271 -0.682623,0.01517 -1.638295,0.986011 -0.940503,0.970842 -0.940503,1.456262 0,0.166864 0.182033,0.166864 0.197202,0 0.515759,-0.25788 0.288219,-0.182033 1.077028,-0.910164 0.182033,-0.182033 0.348896,-0.182033 0.212372,0 0.212372,0.197202 0,0.07585 -0.04551,0.121356 -0.04551,0.04551 -0.166863,0.197202 -0.121355,0.136524 -0.212372,0.25788 -0.273049,0.394404 -0.273049,0.515759 0,0.303388 0.242711,0.303388 0.318557,0 1.198382,-0.576437 0.879825,-0.591607 1.607957,-1.183213 l 0.728131,-0.576437 q 0.106186,-0.07585 0.197202,-0.07585 0.09102,0 0.09102,0.106185 v 0.03034 q -1.168043,0.986011 -2.472612,1.850667 -1.289399,0.864656 -1.698973,0.864656 -0.48542,0 -0.48542,-0.51576 0,-0.121355 0.04551,-0.227541 0.04551,-0.106186 0.04551,-0.151694 0,-0.04551 -0.03034,-0.06068 -0.04551,0 -0.591606,0.409573 -0.530929,0.409574 -0.940503,0.409574 -0.394405,0 -0.394405,-0.424743 0,-0.424743 0.561268,-1.137705 0.576437,-0.728131 1.53211,-1.319738 0.955672,-0.591606 1.865836,-0.591606 0.212371,0 0.348896,0.106185 0.151694,0.106186 0.151694,0.333727 0,0.212372 -0.439913,0.652284 -0.439912,0.439913 -0.75847,0.439913 z"
             style="font-style:normal;font-variant:normal;font-weight:normal;font-stretch:normal;font-size:15.1694px;font-family:'Mrs Saint Delafield';-inkscape-font-specification:'Mrs Saint Delafield';fill:#422a4a;fill-opacity:1;stroke-width:0.264583"
             id="path39" />
          <path
             d="m 71.262956,32.125736 q 0.106186,-0.07585 0.197202,-0.07585 0.09102,0 0.09102,0.106185 v 0.03034 q -1.577618,1.304569 -2.624307,1.956853 -1.046688,0.652284 -1.896175,0.652284 -0.682623,0 -0.682623,-0.667454 0,-0.986011 1.001181,-2.01753 1.00118,-1.046688 1.683803,-1.046688 0.379235,0 0.379235,0.424743 -0.07585,0.834317 -2.396765,2.245071 v 0.151694 q 0,0.50059 0.515759,0.50059 0.530929,0 1.137705,-0.348896 1.183214,-0.697792 2.214733,-1.592787 z M 68.63865,31.534129 q -0.333727,0 -0.864656,0.561268 -0.51576,0.561268 -0.697793,1.274229 0.728132,-0.439912 1.228722,-0.925333 0.50059,-0.50059 0.50059,-0.697792 0,-0.212372 -0.166863,-0.212372 z"
             style="font-style:normal;font-variant:normal;font-weight:normal;font-stretch:normal;font-size:15.1694px;font-family:'Mrs Saint Delafield';-inkscape-font-specification:'Mrs Saint Delafield';fill:#422a4a;fill-opacity:1;stroke-width:0.264583"
             id="path41" />
          <path
             d="m 68.790337,33.900555 q 0,0.227541 0.424743,0.51576 0.409574,0.273049 0.788809,0.273049 0.394404,0 0.667453,-0.04551 L 70.9899,34.219113 q -0.439913,-0.788809 -1.410755,-0.788809 -0.333726,0 -0.561267,0.121355 -0.227541,0.106186 -0.227541,0.348896 z m 2.427104,1.304569 q 0,-0.121355 -0.03034,-0.333727 -3.746842,5.32446 -3.746842,5.840219 0,0.136525 0.182033,0.136525 0.682623,0 1.547279,-0.955672 0.849486,-0.940503 1.441093,-2.29058 0.606776,-1.334907 0.606777,-2.396765 z m 4.323279,-3.018711 q -2.336088,1.941683 -3.80752,2.487782 0.04551,0.212371 0.04551,0.439912 0,0.879826 -0.48542,1.987192 -0.470252,1.122535 -1.168044,2.063038 -0.697793,0.940503 -1.51694,1.577618 -0.834317,0.652284 -1.486601,0.652284 -0.439913,0 -0.439913,-0.348896 0,-0.682623 3.731672,-6.022252 -0.227541,0.01517 -0.318557,0.01517 -0.773639,0 -1.228721,-0.318557 -0.455082,-0.318557 -0.455082,-0.697792 0,-0.394405 0.379235,-0.621946 0.364065,-0.227541 0.910164,-0.227541 0.986011,0 1.577617,0.637115 l 3.443454,-4.717683 q 0,-0.03034 -0.04551,-0.03034 -1.319738,1.395585 -2.320918,2.351257 -0.986011,0.955672 -1.319738,1.213552 l -0.333727,0.25788 -0.07585,-0.227541 q 1.152874,-0.940503 2.138885,-1.941684 0.986011,-1.00118 1.395585,-1.532109 l 0.409574,-0.530929 q 1.046689,-1.319738 1.289399,-1.592787 0.379235,-0.409574 0.591607,-0.409574 0.212371,0 0.212371,0.25788 0,0.227541 -0.894994,1.51694 -0.894995,1.289399 -1.395585,2.002361 -1.562448,2.199563 -1.941683,2.700153 l -0.819148,1.152874 0.04551,0.121356 q 1.137705,-0.409574 2.487782,-1.410755 L 75.2525,32.125736 q 0.121355,-0.07585 0.197202,-0.07585 0.09102,0 0.09102,0.106185 z"
             style="font-style:normal;font-variant:normal;font-weight:normal;font-stretch:normal;font-size:15.1694px;font-family:'Mrs Saint Delafield';-inkscape-font-specification:'Mrs Saint Delafield';fill:#422a4a;fill-opacity:1;stroke-width:0.264583"
             id="path43" />
          <path
             d="m 79.166185,32.125736 q 0.106185,-0.07585 0.197202,-0.07585 0.09102,0 0.09102,0.106185 v 0.03034 q -1.577617,1.304569 -2.624306,1.956853 -1.046689,0.652284 -1.896175,0.652284 -0.682623,0 -0.682623,-0.667454 0,-0.986011 1.00118,-2.01753 1.001181,-1.046688 1.683804,-1.046688 0.379235,0 0.379235,0.424743 -0.07585,0.834317 -2.396765,2.245071 v 0.151694 q 0,0.50059 0.515759,0.50059 0.530929,0 1.137705,-0.348896 1.183213,-0.697792 2.214733,-1.592787 z m -2.624307,-0.591607 q -0.333726,0 -0.864655,0.561268 -0.51576,0.561268 -0.697793,1.274229 0.728131,-0.439912 1.228722,-0.925333 0.50059,-0.50059 0.50059,-0.697792 0,-0.212372 -0.166864,-0.212372 z"
             style="font-style:normal;font-variant:normal;font-weight:normal;font-stretch:normal;font-size:15.1694px;font-family:'Mrs Saint Delafield';-inkscape-font-specification:'Mrs Saint Delafield';fill:#422a4a;fill-opacity:1;stroke-width:0.264583"
             id="path45" />
          <path
             d="m 82.533783,32.125736 q 0.106185,-0.07585 0.197202,-0.07585 0.09102,0 0.09102,0.106185 v 0.03034 q -1.137705,0.910164 -2.245071,1.714142 -1.107366,0.788809 -1.623126,0.788809 -0.379235,0 -0.379235,-0.409574 0,-0.409573 0.364066,-0.819147 0.364065,-0.409574 0.712962,-0.712962 0.364065,-0.303388 0.364065,-0.394404 0,-0.106186 -0.121355,-0.227541 -0.106186,-0.136525 -0.182033,-0.182033 -0.25788,0.25788 -1.122536,0.940503 l -0.06068,-0.227541 q 0.955672,-0.75847 1.107366,-1.01635 V 31.50379 q 0,-0.379235 0.07585,-0.515759 0.07585,-0.136525 0.364066,-0.379235 0.288218,-0.242711 0.394404,-0.242711 0.106186,0 0.182033,0.07585 0.09102,0.07585 0.09102,0.151694 0,0.07585 -0.06068,0.182033 -0.04551,0.09102 -0.106186,0.166863 -0.04551,0.06068 -0.136525,0.166864 -0.09102,0.09102 -0.121355,0.136524 -0.01517,0.03034 -0.04551,0.121356 -0.01517,0.09102 -0.09102,0.151694 -0.07585,0.06068 -0.07585,0.151694 0,0.09102 0.121355,0.409573 0.121355,0.303388 0.121355,0.455082 0,0.136525 -0.561268,0.682623 -0.561268,0.530929 -0.561268,0.864656 0,0.182033 0.166864,0.182033 0.212371,0 0.788809,-0.379235 l 0.182032,-0.121355 q 0.986011,-0.682623 1.850667,-1.380416 z"
             style="font-style:normal;font-variant:normal;font-weight:normal;font-stretch:normal;font-size:15.1694px;font-family:'Mrs Saint Delafield';-inkscape-font-specification:'Mrs Saint Delafield';fill:#422a4a;fill-opacity:1;stroke-width:0.264583"
             id="path47" />
        </g>
      </g>
      <g
         aria-label="Edoid Archive"
         id="text934"
         style="font-style:normal;font-weight:normal;font-size:10.5833px;line-height:1.25;font-family:sans-serif;letter-spacing:0.457729px;word-spacing:3.86821px;fill:#f5d76d;fill-opacity:1;stroke:none;stroke-width:0.264583"
         transform="translate(26.94303,62.812802)">
        <path
           d="m 28.789936,49.59992 q 0.275166,0 0.465665,-0.190499 0.201083,-0.201083 0.211666,-0.476249 v -5.926647 q 0,-0.254 -0.201083,-0.423332 -0.201082,-0.179916 -0.476248,-0.179916 h -0.127 l -0.01058,-0.105833 h 2.14841 q 0.328082,0 0.709081,-0.0635 0.391582,-0.0635 0.550331,-0.127 v 1.333496 h -0.105833 v -0.190499 q 0,-0.254 -0.179916,-0.433916 -0.169332,-0.179916 -0.412748,-0.190499 h -1.206497 v 3.270239 h 2.010827 q 0.211666,-0.01058 0.359833,-0.158749 Q 32.67401,45.58885 32.67401,45.3666 v -0.148166 h 0.105833 v 1.672162 H 32.67401 v -0.15875 q 0,-0.211666 -0.148166,-0.359832 -0.137583,-0.148166 -0.349249,-0.15875 h -2.021411 v 3.164407 h 2.254243 q 0.783164,0 1.195913,-0.349249 0.412749,-0.349249 0.687915,-1.037163 h 0.105833 l -0.613832,1.714494 h -5.1329 V 49.59992 Z"
           style="font-style:normal;font-variant:normal;font-weight:normal;font-stretch:normal;font-family:'Cinzel Decorative';-inkscape-font-specification:'Cinzel Decorative';fill:#422a4a;fill-opacity:1;stroke-width:0.264583"
           id="path50" />
        <path
           d="m 38.277332,43.779084 q 1.354667,0 2.192867,0.821267 0.846667,0.812801 0.846667,2.142068 0,1.329267 -0.846667,2.150534 -0.8382,0.8128 -2.192867,0.8128 h -2.870201 v -0.08467 h 0.110066 q 0.220134,0 0.372534,-0.1524 0.160866,-0.160867 0.169333,-0.381001 v -4.741335 q 0,-0.2032 -0.169333,-0.338667 -0.160867,-0.143933 -0.372534,-0.143933 h -0.1016 l -0.0085,-0.08467 z m -1.667934,0.254 v 5.418669 h 1.667934 q 0.7112,0 1.253067,-0.338667 0.550333,-0.338666 0.846667,-0.948267 0.3048,-0.618067 0.3048,-1.4224 0,-1.219201 -0.668867,-1.964268 -0.6604,-0.745067 -1.735667,-0.745067 z"
           style="font-size:8.46667px;fill:#422a4a;fill-opacity:1"
           id="path52" />
        <path
           d="m 43.518708,44.515685 q 0.905934,-0.855134 2.345268,-0.855134 1.447801,0 2.353734,0.855134 0.905934,0.846667 0.905934,2.226734 0,1.380067 -0.905934,2.235201 -0.905933,0.846667 -2.353734,0.846667 -1.439334,0 -2.345268,-0.846667 -0.905933,-0.855134 -0.905933,-2.235201 0,-1.380067 0.905933,-2.226734 z m 0.457201,4.275668 q 0.719667,0.778934 1.888067,0.778934 1.1684,0 1.879601,-0.778934 0.719667,-0.778934 0.719667,-2.048934 0,-1.270001 -0.719667,-2.048934 -0.711201,-0.778934 -1.879601,-0.778934 -1.1684,0 -1.888067,0.778934 -0.711201,0.778933 -0.711201,2.048934 0,1.27 0.711201,2.048934 z"
           style="font-size:8.46667px;fill:#422a4a;fill-opacity:1"
           id="path54" />
        <path
           d="m 50.3603,49.621087 q 0.220134,0 0.372534,-0.1524 0.160866,-0.160867 0.169333,-0.381001 v -4.699001 q -0.0085,-0.220134 -0.169333,-0.372534 -0.1524,-0.1524 -0.372534,-0.1524 h -0.110067 v -0.08467 h 1.854201 v 0.08467 h -0.110066 q -0.220134,0 -0.381001,0.1524 -0.1524,0.1524 -0.160866,0.372534 v 4.699001 q 0,0.220134 0.160866,0.381001 0.160867,0.1524 0.381001,0.1524 h 0.110066 v 0.08467 h -1.854201 v -0.08467 z"
           style="font-size:8.46667px;fill:#422a4a;fill-opacity:1"
           id="path56" />
        <path
           d="m 56.439893,43.779084 q 1.354667,0 2.192867,0.821267 0.846667,0.812801 0.846667,2.142068 0,1.329267 -0.846667,2.150534 -0.8382,0.8128 -2.192867,0.8128 h -2.870202 v -0.08467 h 0.110067 q 0.220134,0 0.372534,-0.1524 0.160866,-0.160867 0.169333,-0.381001 v -4.741335 q 0,-0.2032 -0.169333,-0.338667 -0.160867,-0.143933 -0.372534,-0.143933 h -0.1016 l -0.0085,-0.08467 z m -1.667934,0.254 v 5.418669 h 1.667934 q 0.7112,0 1.253067,-0.338667 0.550333,-0.338666 0.846667,-0.948267 0.3048,-0.618067 0.3048,-1.4224 0,-1.219201 -0.668867,-1.964268 -0.6604,-0.745067 -1.735667,-0.745067 z"
           style="font-size:8.46667px;fill:#422a4a;fill-opacity:1"
           id="path58" />
        <path
           d="m 68.583172,41.937611 q 0.687914,-0.285749 1.322912,-0.285749 0.529165,0 1.09008,0.391582 0.306916,0.211666 0.687915,0.825498 0.253999,0.423332 0.645581,1.534578 l 1.291162,3.661822 q 0.444499,1.227663 0.899581,1.947327 0.465665,0.730248 0.846664,1.09008 0.380999,0.370415 0.793747,0.518582 0.412749,0.148166 0.677331,0.148166 0.275166,0 0.486832,-0.04233 l 0.01058,0.105833 q -0.507999,0.169332 -0.994831,0.169332 -0.486831,0 -0.973663,-0.253999 -0.486832,-0.243416 -0.910164,-0.687914 -0.910164,-0.920747 -1.545162,-2.804575 l -0.412748,-1.206496 h -2.899824 l -0.730248,1.883827 q -0.05292,0.127 -0.05292,0.254 0,0.126999 0.105833,0.275165 0.116417,0.137583 0.349249,0.137583 h 0.08467 v 0.105833 h -2.12724 V 49.59992 h 0.09525 q 0.253999,0 0.497415,-0.148166 0.243416,-0.158749 0.402166,-0.465665 l 2.624658,-6.28648 q -0.571498,-0.814914 -1.418162,-0.814914 -0.380999,0 -0.814914,0.158749 z m 1.132413,4.794235 H 72.39316 L 71.557079,44.265937 Q 71.313663,43.556856 71.11258,43.154691 Z"
           style="font-style:normal;font-variant:normal;font-weight:normal;font-stretch:normal;font-family:'Cinzel Decorative';-inkscape-font-specification:'Cinzel Decorative';fill:#422a4a;fill-opacity:1;stroke-width:0.264583"
           id="path60" />
        <path
           d="m 77.568931,44.041551 h -0.541866 v 5.046135 q 0,0.220134 0.1524,0.381001 0.160866,0.1524 0.389466,0.1524 h 0.101601 l 0.0085,0.08467 h -1.854201 v -0.08467 h 0.110067 q 0.220134,0 0.372534,-0.1524 0.160866,-0.1524 0.169333,-0.372534 v -4.699002 q -0.0085,-0.220133 -0.169333,-0.372533 -0.1524,-0.160867 -0.372534,-0.160867 h -0.110067 v -0.08467 h 2.286001 q 0.770467,0 1.210734,0.4318 0.440267,0.423334 0.440267,1.109134 0,0.677334 -0.423333,1.176867 -0.414867,0.491067 -1.016001,0.491067 0.127,0.05927 0.296334,0.237067 0.1778,0.169333 0.313266,0.3556 0.728134,1.041401 0.948267,1.286934 0.220134,0.237067 0.313267,0.3302 0.09313,0.08467 0.2032,0.169334 0.110067,0.08467 0.220134,0.135466 0.245533,0.118534 0.524933,0.118534 v 0.08467 h -0.465667 q -0.364066,0 -0.677333,-0.127 -0.313267,-0.135466 -0.474134,-0.270933 -0.1524,-0.143934 -0.270933,-0.270934 -0.110067,-0.135466 -0.626534,-0.880533 -0.516467,-0.745067 -0.601133,-0.846667 -0.08467,-0.110067 -0.1778,-0.211667 -0.270934,-0.287867 -0.541867,-0.287867 v -0.08467 q 0.06773,0.0085 0.1778,0.0085 0.110066,0 0.270933,-0.0085 1.049867,-0.0254 1.320801,-0.880533 0.0508,-0.169334 0.0508,-0.313267 0,-0.1524 0,-0.194733 -0.01693,-0.567267 -0.296334,-0.914401 -0.2794,-0.347133 -0.753533,-0.372533 -0.2032,-0.0085 -0.508001,-0.0085 z"
           style="font-size:8.46667px;fill:#422a4a;fill-opacity:1"
           id="path62" />
        <path
           d="m 84.656046,49.824287 q -1.337734,-0.0085 -2.184401,-0.855134 -0.8382,-0.846667 -0.8382,-2.226734 0,-1.388534 0.8382,-2.235201 0.846667,-0.846667 2.235201,-0.846667 1.134534,0 2.006601,0.575733 l 0.169333,1.193801 h -0.0762 q -0.186267,-0.728134 -0.753534,-1.1176 -0.567267,-0.397934 -1.3462,-0.397934 -1.109134,0 -1.778001,0.770467 -0.6604,0.770467 -0.6604,2.040467 0,1.270001 0.651933,2.048935 0.660401,0.770467 1.735668,0.795867 0.948267,0 1.583267,-0.516467 0.6858,-0.5588 0.829734,-1.820334 h 0.06773 l -0.1016,1.329267 q -0.770467,1.261534 -2.379134,1.261534 z"
           style="font-size:8.46667px;fill:#422a4a;fill-opacity:1"
           id="path64" />
        <path
           d="m 92.649096,49.621087 q 0.220134,0 0.372534,-0.1524 0.160867,-0.160867 0.169333,-0.372534 v -2.192867 h -3.462868 v 2.192867 q 0,0.220134 0.160867,0.372534 0.160867,0.1524 0.381,0.1524 h 0.110067 v 0.08467 h -1.854201 v -0.08467 h 0.110067 q 0.220133,0 0.372533,-0.1524 0.160867,-0.1524 0.169334,-0.372534 v -4.707468 q -0.0085,-0.220134 -0.169334,-0.372534 -0.1524,-0.1524 -0.372533,-0.1524 h -0.110067 v -0.08467 h 1.854201 v 0.08467 h -0.110067 q -0.220133,0 -0.381,0.1524 -0.1524,0.1524 -0.160867,0.372534 v 2.2606 h 3.462868 v -2.2606 q -0.0085,-0.304801 -0.270933,-0.457201 -0.127,-0.06773 -0.270934,-0.06773 H 92.53903 v -0.08467 h 1.854201 v 0.08467 h -0.110067 q -0.220134,0 -0.381,0.160867 -0.1524,0.1524 -0.160867,0.372533 v 4.699002 q 0.0085,0.220134 0.160867,0.372534 0.160866,0.1524 0.381,0.1524 h 0.110067 v 0.08467 H 92.53903 v -0.08467 z"
           style="font-size:8.46667px;fill:#422a4a;fill-opacity:1"
           id="path66" />
        <path
           d="m 95.977028,49.621087 q 0.220133,0 0.372533,-0.1524 0.160867,-0.160867 0.169334,-0.381001 v -4.699001 q -0.0085,-0.220134 -0.169334,-0.372534 -0.1524,-0.1524 -0.372533,-0.1524 h -0.110067 v -0.08467 h 1.854201 v 0.08467 h -0.110067 q -0.220133,0 -0.381,0.1524 -0.1524,0.1524 -0.160867,0.372534 v 4.699001 q 0,0.220134 0.160867,0.381001 0.160867,0.1524 0.381,0.1524 h 0.110067 v 0.08467 h -1.854201 v -0.08467 z"
           style="font-size:8.46667px;fill:#422a4a;fill-opacity:1"
           id="path68" />
        <path
           d="m 103.33509,43.779084 h 1.7018 v 0.08467 h -0.0762 q -0.21167,0 -0.41487,0.135467 -0.2032,0.127 -0.32173,0.389467 l -2.04047,4.563535 q -0.31327,0.6858 -0.31327,0.872067 h -0.0762 l -2.379131,-5.427136 q -0.118533,-0.270933 -0.3302,-0.397933 -0.2032,-0.135467 -0.414867,-0.135467 h -0.06773 v -0.08467 h 1.904998 v 0.08467 h -0.0762 q -0.1778,0 -0.27093,0.118533 -0.0847,0.110067 -0.0847,0.211667 0,0.09313 0.0423,0.194734 l 1.76954,4.436535 1.84573,-4.436535 q 0.0339,-0.1016 0.0339,-0.194734 0,-0.1016 -0.0931,-0.211667 -0.0847,-0.118533 -0.26246,-0.118533 h -0.0762 z"
           style="font-size:8.46667px;fill:#422a4a;fill-opacity:1"
           id="path70" />
        <path
           d="m 106.01955,49.621087 q 0.22013,0 0.37253,-0.1524 0.16087,-0.160867 0.16933,-0.381001 v -4.741335 q 0,-0.2032 -0.16086,-0.338667 -0.16087,-0.143933 -0.381,-0.143933 h -0.1016 l -0.008,-0.08467 h 2.48073 q 0.26247,0 0.56727,-0.0508 0.31327,-0.0508 0.44027,-0.1016 v 1.066801 h -0.0847 v -0.1524 q 0,-0.2032 -0.14393,-0.347134 -0.13547,-0.143933 -0.3302,-0.1524 h -1.7272 v 2.616201 h 1.43086 q 0.16934,-0.0085 0.28787,-0.127 0.11853,-0.118533 0.11853,-0.296333 v -0.118534 h 0.0847 v 1.337734 h -0.0847 v -0.127 q 0,-0.169333 -0.11853,-0.287867 -0.11007,-0.118533 -0.2794,-0.127 h -1.43933 v 2.531535 h 1.21073 q 0.62653,0 0.95673,-0.279401 0.3302,-0.2794 0.55034,-0.829733 h 0.0847 l -0.49106,1.3716 h -3.51367 v -0.08467 z"
           style="font-size:8.46667px;fill:#422a4a;fill-opacity:1"
           id="path72" />
      </g>
    </g>
  </g>
</svg>
